# xmcd
#
# Track frame offsets:
#	150
#	16919
#	32064
#	44532
#	64151
#	80807
#	109414
#	125281
#	144615
#	160314
#	180921
#	191349
#	207623
#
# Disc length: 2865 seconds
#
# Revision: 1
# Processed by: cddbd v1.5.1PL2 Copyright (c) Steve Scherf et al.
# Submitted via: audiograbber 1.82.02
#
DISCID=b80b2f0d
DTITLE=LEBESIS GIANNIS - LEBESIS GIANNIS_KARDIOFTEROUGISMATA
DYEAR=2006
DGENRE=REMBETIKA
TTITLE0=PAIKSE BARY KAI ASHKOTO
TTITLE1=XORIS ESENA SKOTEINIA
TTITLE2=THA T ALLAKSO TO BIOLAKI
TTITLE3=KARDIOFTEROUGISMATA
TTITLE4=SOU GRAPSA ENA TRAGOUDI
TTITLE5=OLA TA GIATI TOU KOSMOU
TTITLE6=PHRA ANAPODES STROFES
TTITLE7=APENANTI STO MINARE
TTITLE8=ANTHROPOI KAI ANTHROPAKIA
TTITLE9=OSO KI AN PERNA O XRONOS
TTITLE10=MPHKE O DIABOLOS STH MESH
TTITLE11=AX EAYTE MOU
TTITLE12=ME GEMISAN RAGISMATA
EXTD=
EXTT0=
EXTT1=
EXTT2=
EXTT3=
EXTT4=
EXTT5=
EXTT6=
EXTT7=
EXTT8=
EXTT9=
EXTT10=
EXTT11=
EXTT12=
PLAYORDER=
